#N canvas 738 191 576 390 10;
#X obj 50 87 cnv 15 139 21 empty empty empty 20 12 1 9 -187776 -1 0
;
#X obj 180 87 tgl 10 0 \$0-on \$0-on-in empty 17 7 1 9 -187776 -33289
-1 0 1;
#X obj 160 87 bng 10 250 50 0 \$0-open \$0-open-in o 3 5 1 9 -187776
-33289 -1;
#X obj 170 87 bng 10 250 50 0 \$0-save \$0-save-in s 3 5 1 9 -187776
-33289 -1;
#X obj 49 179 inlet~;
#X obj 51 338 outlet~;
#X text 51 357 audio out;
#N canvas 290 90 551 425 \$0-RECORD 0;
#X obj 27 390 tabwrite~ \$0-smp-1;
#X msg 132 276 stop;
#X obj 383 350 pack f \$0;
#X msg 383 373 set \$2-smp-\$1;
#X obj 26 216 inlet~;
#X obj 186 261 timer;
#X obj 257 197 t b b b;
#X msg 276 352 bang;
#X obj 132 67 == 2;
#X obj 132 46 r \$0-mode;
#X text 428 123 REC \; -----;
#X text 128 10 STOP \; -----;
#X obj 132 186 spigot;
#X msg 165 160 1;
#X obj 132 209 t b b;
#X msg 179 187 0;
#X obj 186 301 * 44.1;
#X obj 186 322 s \$0-size;
#X text 429 298 Change ID table;
#X obj 132 254 del 5;
#X msg 428 189 1;
#X obj 383 237 t b b;
#X msg 442 213 0;
#X obj 383 214 spigot 1;
#X obj 132 112 sel 0 1;
#N canvas 656 342 450 300 fade-5ms 0;
#X obj 183 193 *~;
#X obj 198 149 line~;
#X obj 198 172 *~;
#X msg 198 129 \$1 5;
#X obj 182 38 inlet~;
#X obj 182 224 outlet~;
#X obj 198 107 == 2;
#X obj 198 84 r \$0-mode;
#X connect 0 0 5 0;
#X connect 1 0 2 0;
#X connect 1 0 2 1;
#X connect 2 0 0 1;
#X connect 3 0 1 0;
#X connect 4 0 0 0;
#X connect 6 0 3 0;
#X connect 7 0 6 0;
#X restore 27 252 pd fade-5ms;
#X obj 165 138 t b b;
#X obj 428 169 sel 0;
#X obj 132 89 t f f;
#X obj 186 280 + 5;
#X obj 132 232 t b b;
#X obj 398 262 r \$0-id-table;
#X obj 383 312 == 0;
#X obj 447 329 s \$0-id-table;
#X obj 383 287 f 1;
#X connect 1 0 0 0;
#X connect 2 0 3 0;
#X connect 3 0 0 0;
#X connect 4 0 25 0;
#X connect 5 0 29 0;
#X connect 6 0 5 0;
#X connect 6 1 7 0;
#X connect 6 2 23 0;
#X connect 7 0 0 0;
#X connect 8 0 28 0;
#X connect 9 0 8 0;
#X connect 12 0 14 0;
#X connect 13 0 12 1;
#X connect 14 0 30 0;
#X connect 14 1 15 0;
#X connect 15 0 12 1;
#X connect 16 0 17 0;
#X connect 19 0 1 0;
#X connect 20 0 23 1;
#X connect 21 0 34 0;
#X connect 21 1 22 0;
#X connect 22 0 23 1;
#X connect 23 0 21 0;
#X connect 24 0 12 0;
#X connect 24 1 26 0;
#X connect 25 0 0 0;
#X connect 26 0 13 0;
#X connect 26 1 6 0;
#X connect 27 0 20 0;
#X connect 28 0 24 0;
#X connect 28 1 27 0;
#X connect 29 0 16 0;
#X connect 30 0 19 0;
#X connect 30 1 5 1;
#X connect 31 0 34 1;
#X connect 32 0 33 0;
#X connect 32 0 2 0;
#X connect 34 0 32 0;
#X restore 50 203 pd \$0-RECORD;
#N canvas 189 429 255 338 \$0-TABLES 0;
#N canvas 1 79 450 300 (subpatch) 0;
#X array \$0-smp-1 882000 float 0;
#X coords 0 1.02 881999 -1.02 200 130 1;
#X restore 31 185 graph;
#N canvas 1 50 450 300 (subpatch) 0;
#X array \$0-smp-0 29596 float 0;
#X coords 0 1.02 29595 -1.02 200 130 1 0 0;
#X restore 31 25 graph;
#X restore 50 223 pd \$0-TABLES;
#X text 48 145 AUDIO \; ---------------------;
#X text 231 47 COMMANDS \; ---------------------;
#N canvas 106 152 1083 589 \$0-COMMANDS 0;
#X obj 22 -12 inlet;
#X obj 256 209 s \$0-loop-in;
#X obj 32 198 s \$0-on-in;
#X obj 33 535 s \$0-start-in;
#X obj 63 514 s \$0-end-in;
#X obj 192 229 s \$0-speed-in;
#X obj 50 182 s \$0-mode-in;
#X msg 82 151 0;
#X msg 140 164 2;
#X msg 114 151 1;
#X obj 156 451 s \$0-phase;
#X obj 187 380 s \$0-resize;
#X obj 867 330 s \$0-snd;
#X obj 749 371 s \$0-snd-outside;
#X obj 808 329 symbol;
#X obj 808 350 s \$0-snd-bank;
#X msg 156 425 0;
#X obj 387 388 s \$0-auto-pause;
#X obj 249 338 s \$0-reset;
#X obj 749 307 route snd-outside snd-bank snd;
#X obj 125 472 s \$0-pos-line;
#X obj 94 492 s \$0-pos-in;
#X obj 32 112 route on mode stop play rec speed pitch loop file save
;
#X obj 156 402 route bang;
#X obj 461 363 s \$0-auto-play;
#X obj 218 359 s \$0-size;
#X obj 280 317 s \$0-rec-time;
#X obj 85 68 r \$0-reset;
#X msg 85 89 phase 0;
#X msg 158 89 start 0 \, end 1 \, speed 1 \, phase 0;
#X obj 158 68 r \$0-init;
#X obj 311 296 s \$0-init;
#X obj 387 290 route auto-pause auto-play auto-length auto-update;
#X obj 609 316 s \$0-auto-update-in;
#X obj 535 340 s \$0-auto-length-in;
#X obj 505 206 s \$0-chunk;
#X obj 661 165 s \$0-slice-nb;
#X obj 746 176 s \$0-slice;
#X obj 598 180 r \$0-start;
#X obj 579 202 f;
#X obj 579 224 +;
#X obj 579 259 s \$0-end-in;
#X msg 611 237 set \$1;
#X obj 616 159 /;
#X obj 488 229 s \$0-update;
#X obj 488 176 t b f b f;
#X obj 663 194 r \$0-size;
#X obj 663 258 / 44.1;
#X obj 696 215 r \$0-samplerate;
#X obj 696 236 / 1000;
#X msg 433 202 1;
#X obj 436 234 change;
#X obj 435 258 s \$0-auto-length-in;
#X obj 821 214 s \$0-loop-in;
#X msg 820 176 0;
#X msg 857 170 1;
#X obj 859 191 s \$0-mode-in;
#X obj 897 166 s \$0-update;
#X obj 950 210 r \$0-samplerate;
#X obj 950 231 / 1000;
#X obj 917 253 * 44.1;
#X obj 918 275 s \$0-size;
#X obj 22 14 route float;
#X obj 22 37 s \$0-speed-in;
#X obj 33 260 route start end pos pos-line phase resize size-smp reset
rec-time init;
#X obj 152 139 route bang float;
#X obj 157 175 t b f;
#X obj 133 220 s \$0-snd;
#X obj 572 89 route length length-ms slice-nb slice bang update size
fade;
#X obj 928 123 s \$0-fade;
#X obj 201 202 sel 0;
#N canvas 704 241 519 432 -\$0-FILE-PATH- 0;
#X obj 168 271 pack s s;
#X msg 167 292 symbol \$2/\$1;
#X obj 213 225 initbang;
#X obj 213 248 getdir 4;
#X obj 167 318 s \$0-open-file;
#X obj 161 129 inlet;
#X obj 168 179 symbol;
#X obj 280 270 pack s s;
#X msg 279 291 symbol \$2/\$1;
#X obj 280 178 symbol;
#X obj 279 317 s \$0-save-file;
#X obj 267 133 inlet;
#X connect 0 0 1 0;
#X connect 1 0 4 0;
#X connect 2 0 3 0;
#X connect 3 0 0 1;
#X connect 3 0 7 1;
#X connect 5 0 6 0;
#X connect 6 0 0 0;
#X connect 7 0 8 0;
#X connect 8 0 10 0;
#X connect 9 0 7 0;
#X connect 11 0 9 0;
#X restore 289 167 pd -\$0-FILE-PATH-;
#N canvas 736 439 450 300 \$0pitch 0;
#X text 58 53 pitch command : changes speed by semitones;
#X obj 51 18 inlet;
#X obj 51 177 outlet;
#X obj 51 79 expr pow(2. \, ($f1/12));
#X connect 1 0 3 0;
#X connect 3 0 2 0;
#X restore 208 174 pd \$0pitch;
#X connect 0 0 62 0;
#X connect 7 0 6 0;
#X connect 8 0 6 0;
#X connect 9 0 6 0;
#X connect 14 0 15 0;
#X connect 16 0 10 0;
#X connect 19 0 13 0;
#X connect 19 1 14 0;
#X connect 19 2 12 0;
#X connect 22 0 2 0;
#X connect 22 1 6 0;
#X connect 22 2 7 0;
#X connect 22 3 9 0;
#X connect 22 4 65 0;
#X connect 22 5 70 0;
#X connect 22 6 72 0;
#X connect 22 7 1 0;
#X connect 22 8 71 0;
#X connect 22 9 71 1;
#X connect 22 10 64 0;
#X connect 22 10 68 0;
#X connect 23 0 16 0;
#X connect 23 1 10 0;
#X connect 27 0 28 0;
#X connect 28 0 22 0;
#X connect 29 0 22 0;
#X connect 30 0 29 0;
#X connect 32 0 17 0;
#X connect 32 1 24 0;
#X connect 32 2 34 0;
#X connect 32 3 33 0;
#X connect 32 4 19 0;
#X connect 38 0 39 1;
#X connect 39 0 40 0;
#X connect 40 0 41 0;
#X connect 42 0 41 0;
#X connect 43 0 45 0;
#X connect 45 0 44 0;
#X connect 45 0 50 0;
#X connect 45 1 35 0;
#X connect 45 2 39 0;
#X connect 45 3 40 1;
#X connect 46 0 47 0;
#X connect 47 0 43 1;
#X connect 48 0 49 0;
#X connect 49 0 47 1;
#X connect 50 0 51 0;
#X connect 51 0 52 0;
#X connect 54 0 53 0;
#X connect 55 0 56 0;
#X connect 58 0 59 0;
#X connect 59 0 60 1;
#X connect 60 0 61 0;
#X connect 62 0 63 0;
#X connect 62 1 22 0;
#X connect 64 0 3 0;
#X connect 64 1 4 0;
#X connect 64 2 21 0;
#X connect 64 3 20 0;
#X connect 64 4 23 0;
#X connect 64 5 11 0;
#X connect 64 6 25 0;
#X connect 64 7 18 0;
#X connect 64 8 26 0;
#X connect 64 9 31 0;
#X connect 64 10 32 0;
#X connect 65 0 8 0;
#X connect 65 1 66 0;
#X connect 66 0 8 0;
#X connect 66 1 67 0;
#X connect 68 0 45 0;
#X connect 68 1 43 0;
#X connect 68 2 36 0;
#X connect 68 3 37 0;
#X connect 68 4 54 0;
#X connect 68 4 55 0;
#X connect 68 5 57 0;
#X connect 68 6 60 0;
#X connect 68 7 69 0;
#X connect 70 1 5 0;
#X connect 72 0 70 0;
#X restore 234 138 pd \$0-COMMANDS;
#X obj 234 93 inlet;
#N canvas 32 480 330 287 \$0-PLAY 0;
#X obj 98 216 outlet~;
#X obj 97 194 hip~ 5;
#X obj 97 129 tabread4~;
#N canvas 314 212 473 418 \$0-TABLE 0;
#X obj 66 131 r \$0-id-table;
#X obj 51 199 pack f \$0;
#X msg 51 219 symbol \$2-smp-\$1;
#X msg 51 330 set \$1;
#X obj 51 88 == 1;
#X obj 51 68 r \$0-mode;
#X obj 51 110 sel 1;
#X obj 51 354 outlet;
#X obj 51 153 f 1;
#X obj 51 174 change;
#X obj 51 291 spigot 1;
#X obj 96 268 == 0;
#X obj 251 292 spigot;
#X obj 251 197 pack f s;
#X msg 251 219 symbol \$2-\$1;
#X obj 251 82 r \$0-snd;
#X obj 284 251 r \$0-snd-outside;
#X obj 278 335 expr size("$s1");
#X obj 278 376 s \$0-size;
#X obj 296 169 r \$0-snd-bank;
#X text 250 40 table from outside [audio-bank];
#X text 44 17 Choose the table to play \; -------------------------
;
#X obj 251 313 t a a;
#X text 250 56 or [audio-rec];
#X obj 278 356 change;
#X connect 0 0 8 1;
#X connect 1 0 2 0;
#X connect 2 0 10 0;
#X connect 3 0 7 0;
#X connect 4 0 6 0;
#X connect 5 0 4 0;
#X connect 6 0 8 0;
#X connect 8 0 9 0;
#X connect 9 0 1 0;
#X connect 10 0 3 0;
#X connect 11 0 10 1;
#X connect 12 0 22 0;
#X connect 13 0 14 0;
#X connect 14 0 12 0;
#X connect 15 0 13 0;
#X connect 16 0 11 0;
#X connect 16 0 12 1;
#X connect 17 0 24 0;
#X connect 19 0 13 1;
#X connect 22 0 3 0;
#X connect 22 1 17 0;
#X connect 24 0 18 0;
#X restore 97 42 pd \$0-TABLE;
#X obj 117 65 inlet;
#X obj 186 213 outlet~;
#N canvas 516 135 728 595 \$0-PHASOR 0;
#X obj 72 514 +~ 1;
#X obj 73 539 +~;
#X obj 72 492 *~;
#X obj 72 202 *;
#X obj 265 230 *;
#X obj 26 168 r \$0-size;
#X obj 73 562 outlet~;
#X obj 219 176 r \$0-size;
#X obj 319 239 sig~;
#X obj 474 93 r \$0-size;
#X obj 592 168 r \$0-samplerate;
#X obj 319 192 expr (1 / $f1) * ( $f2 * ( 1 / ($f3 / $f4) ) );
#X obj 410 61 inlet;
#X obj 360 241 r \$0-phase;
#X text 417 41 speed;
#X obj 473 459 line~;
#X obj 436 475 *~;
#X obj 321 475 *~;
#X obj 337 425 == 0;
#X obj 337 453 sig~;
#X obj 436 453 sig~;
#X obj 337 381 tgl 15 0 empty empty empty 17 7 1 9 -187776 -33289 -1
0 1;
#X obj 337 359 r \$0-mode-scratch;
#X obj 322 558 outlet~;
#X obj 485 419 s \$0-phase;
#X obj 473 438 pack f 100;
#X obj 265 415 sig~;
#X obj 72 418 sig~;
#X obj 291 81 r \$0-mode;
#X obj 87 251 / 44.1;
#X obj 120 208 r \$0-samplerate;
#X obj 120 229 / 1000;
#X obj 290 58 r \$0-phase;
#X obj 473 396 spigot;
#X obj 334 144 r \$0-chunk;
#X obj 280 131 t b b b;
#X text 279 11 Update start/end values after the loop;
#X obj 280 34 r \$0-bg;
#X obj 590 327 s \$0-bg;
#X obj 540 439 r \$0-pos-line;
#X obj 473 368 r \$0-pos;
#X text 327 326 SCRATCH MODE \; -----------------------------------------------
;
#X obj 99 275 r \$0-speed;
#X obj 99 313 t b f;
#X obj 87 335 / 1;
#X obj 99 294 abs;
#X obj 87 357 s \$0-length;
#X obj 319 168 f 1;
#X msg 597 136 88200;
#X msg 570 136 1;
#X msg 544 136 1;
#X obj 544 115 t b b b;
#X obj 544 95 r \$0-init-phasor;
#X obj 412 142 t b f;
#X obj 474 141 t b f;
#X obj 265 389 change;
#X obj 72 386 change;
#X obj 332 114 r \$0-update;
#N canvas 46 90 945 334 CHUNK_START 0;
#X obj 372 262 outlet;
#X obj 44 274 outlet;
#X obj 44 231 r \$0-chunk;
#X obj 151 273 s \$0-chunk;
#X obj 151 223 -;
#X obj 294 117 r \$0-auto-length;
#X obj 288 174 r \$0-chunk;
#X obj 261 145 spigot;
#X obj 242 99 t b f f;
#X obj 151 192 spigot;
#X obj 118 143 == 0;
#X obj 50 118 r \$0-end;
#X obj 242 77 r \$0-start;
#X obj 118 117 r \$0-auto-length;
#X obj 261 243 s \$0-end-in;
#X msg 261 219 set \$1;
#X obj 471 222 min;
#X msg 471 245 set \$1;
#X obj 471 267 s \$0-start-in;
#X obj 668 221 max;
#X obj 668 266 s \$0-end-in;
#X msg 668 244 set \$1;
#X obj 471 126 r \$0-start;
#X obj 668 147 r \$0-end;
#X obj 471 190 spigot;
#X obj 668 185 spigot;
#X obj 727 146 r \$0-chunk;
#X obj 549 68 r \$0-chunk;
#X obj 549 173 &&;
#X obj 571 113 r \$0-auto-length;
#X obj 571 156 t b f;
#X obj 807 219 min;
#X msg 807 242 set \$1;
#X obj 807 264 s \$0-start-in;
#X obj 807 87 r \$0-start;
#X obj 807 132 spigot;
#X obj 840 109 r \$0-auto-length;
#X obj 822 157 r \$0-chunk;
#X obj 822 198 -;
#X msg 822 178 1 \$1;
#X obj 571 135 == 0;
#X obj 261 196 + 0.2;
#X obj 727 168 <= 0.0001;
#X obj 549 90 <= 0.0001;
#X obj 151 250 max 1e-06;
#X text 497 37 min-max constraints;
#X text 57 48 AUTO-LENGTH MODE \; ----------------;
#X obj 44 252 change;
#X obj 373 237 change;
#X connect 2 0 47 0;
#X connect 4 0 44 0;
#X connect 5 0 7 1;
#X connect 6 0 41 1;
#X connect 7 0 41 0;
#X connect 8 0 9 0;
#X connect 8 1 7 0;
#X connect 8 2 4 1;
#X connect 8 2 48 0;
#X connect 9 0 4 0;
#X connect 10 0 9 1;
#X connect 11 0 4 0;
#X connect 12 0 8 0;
#X connect 13 0 10 0;
#X connect 15 0 14 0;
#X connect 16 0 17 0;
#X connect 17 0 18 0;
#X connect 19 0 21 0;
#X connect 21 0 20 0;
#X connect 22 0 19 1;
#X connect 22 0 24 0;
#X connect 23 0 25 0;
#X connect 23 0 16 1;
#X connect 24 0 16 0;
#X connect 25 0 19 0;
#X connect 26 0 42 0;
#X connect 27 0 43 0;
#X connect 28 0 24 1;
#X connect 29 0 40 0;
#X connect 30 0 28 0;
#X connect 30 1 28 1;
#X connect 31 0 32 0;
#X connect 32 0 33 0;
#X connect 34 0 35 0;
#X connect 35 0 31 0;
#X connect 36 0 35 1;
#X connect 37 0 39 0;
#X connect 38 0 31 1;
#X connect 39 0 38 0;
#X connect 40 0 30 0;
#X connect 41 0 15 0;
#X connect 42 0 25 1;
#X connect 43 0 28 0;
#X connect 44 0 3 0;
#X connect 47 0 1 0;
#X connect 48 0 0 0;
#X restore 87 107 pd CHUNK_START;
#X text 89 70 AUTO-LENGTH \; -----------------;
#X obj 343 217 s \$0-freq;
#X obj 26 191 change;
#X obj 219 197 change;
#X obj 474 119 change;
#X obj 291 103 sel 1;
#X obj 320 266 phasor~;
#X obj 496 236 rzero~ 1;
#X obj 590 307 bng 15 100 50 0 empty empty empty 17 7 0 10 -187776
-33289 -1;
#X obj 497 259 threshold~ 0;
#X msg 630 374 0;
#X obj 641 405 s \$0-mode-in;
#X obj 646 451 s \$0-bg-end;
#X obj 594 250 &&;
#X obj 638 221 r \$0-mode;
#X obj 638 246 == 1;
#X obj 590 285 spigot;
#X obj 622 195 r \$0-loop;
#X obj 599 224 t b f;
#X obj 412 97 sel 0;
#X connect 0 0 1 0;
#X connect 1 0 6 0;
#X connect 2 0 0 0;
#X connect 3 0 29 0;
#X connect 3 0 56 0;
#X connect 4 0 55 0;
#X connect 5 0 61 0;
#X connect 7 0 62 0;
#X connect 8 0 65 0;
#X connect 9 0 63 0;
#X connect 10 0 11 3;
#X connect 11 0 8 0;
#X connect 11 0 60 0;
#X connect 12 0 78 0;
#X connect 13 0 65 1;
#X connect 15 0 16 1;
#X connect 16 0 2 1;
#X connect 17 0 2 1;
#X connect 17 0 23 0;
#X connect 18 0 19 0;
#X connect 19 0 17 1;
#X connect 20 0 16 0;
#X connect 21 0 20 0;
#X connect 21 0 18 0;
#X connect 21 0 33 1;
#X connect 22 0 21 0;
#X connect 25 0 15 0;
#X connect 26 0 1 1;
#X connect 27 0 2 0;
#X connect 28 0 64 0;
#X connect 29 0 44 0;
#X connect 30 0 31 0;
#X connect 31 0 29 1;
#X connect 33 0 25 0;
#X connect 33 0 24 0;
#X connect 34 0 47 1;
#X connect 35 0 3 0;
#X connect 35 1 4 0;
#X connect 35 2 47 0;
#X connect 37 0 35 0;
#X connect 39 0 25 1;
#X connect 40 0 33 0;
#X connect 42 0 45 0;
#X connect 43 0 44 0;
#X connect 43 1 44 1;
#X connect 44 0 46 0;
#X connect 45 0 43 0;
#X connect 47 0 11 0;
#X connect 48 0 11 2;
#X connect 49 0 11 1;
#X connect 50 0 11 0;
#X connect 51 0 50 0;
#X connect 51 1 49 0;
#X connect 51 2 48 0;
#X connect 52 0 51 0;
#X connect 53 0 11 0;
#X connect 53 1 11 1;
#X connect 54 0 11 0;
#X connect 54 1 11 2;
#X connect 55 0 26 0;
#X connect 56 0 27 0;
#X connect 57 0 35 0;
#X connect 58 0 3 1;
#X connect 58 1 4 1;
#X connect 61 0 3 0;
#X connect 62 0 4 0;
#X connect 63 0 54 0;
#X connect 64 0 35 0;
#X connect 65 0 66 0;
#X connect 65 0 17 0;
#X connect 66 0 68 0;
#X connect 67 0 38 0;
#X connect 68 0 75 0;
#X connect 69 0 70 0;
#X connect 72 0 75 1;
#X connect 73 0 74 0;
#X connect 74 0 72 0;
#X connect 75 0 67 0;
#X connect 76 0 77 0;
#X connect 77 0 72 0;
#X connect 77 1 72 1;
#X connect 78 1 53 0;
#X restore 117 90 pd \$0-PHASOR;
#N canvas 460 322 351 472 \$0-FADE 0;
#X obj 98 121 -~ 0.5;
#X obj 97 200 clip~ -0.5 0.5;
#X obj 97 181 *~ 1;
#X obj 97 219 cos~;
#X obj 98 141 wrap~;
#X obj 98 161 -~ 0.5;
#X obj 97 257 *~ -0.5;
#X obj 97 238 -~ 1;
#X obj 163 164 max 1;
#X obj 163 122 max 0.0001;
#X obj 163 102 / 1000;
#X obj 163 143 expr 1/$f1;
#X obj 97 278 sqrt~;
#X obj 53 447 outlet~;
#X text 49 21 ---------------------;
#X text 49 13 # ENVELOPPE SMOOTHER #;
#X obj 98 100 inlet~;
#X obj 53 97 inlet~;
#X obj 53 419 *~;
#X obj 153 300 tgl 15 0 empty empty empty 17 7 1 9 -187776 -33289 -1
0 1;
#X obj 153 278 r \$0-mode-scratch;
#X obj 98 363 *~;
#X obj 114 340 sig~;
#X obj 114 319 == 0;
#X obj 153 363 sig~;
#X obj 163 81 r \$0-fade;
#X connect 0 0 4 0;
#X connect 1 0 3 0;
#X connect 2 0 1 0;
#X connect 3 0 7 0;
#X connect 4 0 5 0;
#X connect 5 0 2 0;
#X connect 6 0 12 0;
#X connect 7 0 6 0;
#X connect 8 0 2 1;
#X connect 9 0 11 0;
#X connect 10 0 9 0;
#X connect 11 0 8 0;
#X connect 12 0 21 0;
#X connect 16 0 0 0;
#X connect 17 0 18 0;
#X connect 18 0 13 0;
#X connect 19 0 23 0;
#X connect 19 0 24 0;
#X connect 20 0 19 0;
#X connect 21 0 18 1;
#X connect 22 0 21 1;
#X connect 23 0 22 0;
#X connect 24 0 18 1;
#X connect 25 0 10 0;
#X restore 97 152 pd \$0-FADE;
#N canvas 1 100 401 334 \$0-ONOFF 0;
#X obj 123 167 line~;
#X obj 123 114 sqrt;
#X obj 123 140 sqrt;
#X obj 122 193 *~;
#X obj 122 222 *~;
#X obj 123 89 unpack;
#X obj 80 238 *~;
#X obj 79 40 inlet~;
#X obj 81 280 outlet~;
#X obj 227 163 switch~;
#X obj 123 44 r \$0-on;
#X msg 123 67 \$1 5;
#X obj 200 91 sel 0;
#X msg 200 136 0;
#X obj 200 115 del 5;
#X connect 0 0 3 0;
#X connect 0 0 3 1;
#X connect 1 0 2 0;
#X connect 2 0 0 0;
#X connect 3 0 4 0;
#X connect 3 0 4 1;
#X connect 4 0 6 1;
#X connect 5 0 1 0;
#X connect 5 1 0 1;
#X connect 6 0 8 0;
#X connect 7 0 6 0;
#X connect 10 0 11 0;
#X connect 10 0 12 0;
#X connect 11 0 5 0;
#X connect 12 0 14 0;
#X connect 12 1 9 0;
#X connect 13 0 9 0;
#X connect 14 0 13 0;
#X restore 97 173 pd \$0-ONOFF;
#X connect 1 0 0 0;
#X connect 2 0 7 0;
#X connect 3 0 2 0;
#X connect 4 0 6 0;
#X connect 6 0 2 0;
#X connect 6 1 7 1;
#X connect 6 1 5 0;
#X connect 7 0 8 0;
#X connect 8 0 1 0;
#X restore 51 286 pd \$0-PLAY;
#X obj 114 87 nbx 4 10 -100 100 0 0 \$0-speed \$0-speed-in speed -28
5 1 9 -187776 -33289 -1 0 256;
#X obj 53 117 hsl 135 10 0 1 0 0 \$0-pos \$0-pos-in pos 1 6 1 9 -187776
-33289 -1 0 1;
#X obj 150 87 tgl 10 0 \$0-loop \$0-loop-in L 3 6 1 9 -187776 -33289
-1 0 1;
#X obj 50 87 hradio 10 1 0 3 \$0-mode \$0-mode-in empty 0 -8 0 10 -187776
-33289 -1 0;
#X obj 61 88 cnv 8 1 3 empty \$0-cnv-play  0 3 0 13 -187776 -1 0;
#X obj 71 88 cnv 8 8 8 empty \$0-cnv-rec · -3 0 2 60 -187776 -1 0;
#N canvas 282 81 811 589 \$0-GUI-SAMPLER 0;
#X msg 99 114 26 15 0 3 1;
#X msg 202 119 34 20 1 9 1;
#X msg 336 119 7 16 1 4 1;
#X msg 189 88 34 22 -2 10 0;
#X msg 85 88 17 13 0 3 0;
#X msg 325 94 183 60 -3 0 2;
#X text 37 88 lin;
#X text 39 115 ws;
#X msg 102 143 187 17 0 3 1;
#X msg 213 148 34 20 1 9 1;
#X text 40 142 mac;
#X obj 458 287 makefilename %c;
#X obj 111 539 s \$0-cnv-play;
#X obj 111 467 makefilename %c;
#X obj 458 359 s \$0-cnv-rec;
#X obj 92 210 r \$0-mode;
#X obj 166 381 sel 0 1;
#X obj 92 230 == 1;
#X obj 92 289 sel 1 0;
#X obj 194 352 mod 2;
#X obj 166 331 f;
#X obj 194 330 + 1;
#X msg 181 306 0;
#X text 214 446 char \, size \, x \, y \, font;
#X msg 111 516 label \$1 \, label_font \$5 \$2 \, label_pos \$3 \$4
;
#X obj 111 442 unpack f f f f f;
#X obj 111 495 pack s 9 f f f;
#X obj 458 259 unpack f f f f f;
#X text 563 257 char \, size \, x \, y \, font;
#X obj 458 315 pack s 9 f f f;
#X msg 458 336 label \$1 \, label_font \$5 \$2 \, label_pos \$3 \$4
;
#X obj 85 176 s \$0-label-play;
#X obj 189 178 s \$0-label-pause;
#X obj 325 176 s \$0-label-rec;
#X obj 85 58 select linux windows macos;
#X obj 85 37 operating_system;
#X obj 111 413 list;
#X obj 185 413 list;
#X obj 14 368 r \$0-label-play;
#X obj 245 395 r \$0-label-pause;
#X obj 458 235 r \$0-label-rec;
#X msg 339 147 183 31 -5 0 0;
#X obj 449 61 r \$0-mode;
#X obj 449 106 sel 0 1;
#X obj 618 60 r \$0-mode;
#X obj 618 105 sel 0 1;
#X obj 449 177 s \$0-cnv-play;
#X obj 618 178 s \$0-cnv-rec;
#X obj 449 82 == 1;
#X obj 618 81 == 2;
#X msg 449 152 color \$1 22;
#X msg 527 150 color 22 \$1;
#X msg 710 154 color 22 \$1;
#X msg 618 151 color \$1 22;
#X obj 142 233 r \$0-auto-pause;
#X obj 92 250 spigot;
#X obj 142 257 sel 1;
#X obj 85 16 initbang;
#X obj 449 130 ../core/gui-color 0;
#X obj 527 96 ../core/gui-color 0;
#X obj 618 129 ../core/gui-color 0;
#X obj 710 102 ../core/gui-color 0;
#X connect 0 0 31 0;
#X connect 1 0 32 0;
#X connect 2 0 33 0;
#X connect 3 0 32 0;
#X connect 4 0 31 0;
#X connect 5 0 33 0;
#X connect 8 0 31 0;
#X connect 9 0 32 0;
#X connect 11 0 29 0;
#X connect 13 0 26 0;
#X connect 15 0 17 0;
#X connect 16 0 36 0;
#X connect 16 1 37 0;
#X connect 17 0 55 0;
#X connect 18 0 20 0;
#X connect 18 1 22 0;
#X connect 18 1 36 0;
#X connect 19 0 20 1;
#X connect 20 0 21 0;
#X connect 20 0 16 0;
#X connect 21 0 19 0;
#X connect 22 0 20 1;
#X connect 24 0 12 0;
#X connect 25 0 13 0;
#X connect 25 1 26 1;
#X connect 25 2 26 2;
#X connect 25 3 26 3;
#X connect 25 4 26 4;
#X connect 26 0 24 0;
#X connect 27 0 11 0;
#X connect 27 1 29 1;
#X connect 27 2 29 2;
#X connect 27 3 29 3;
#X connect 27 4 29 4;
#X connect 29 0 30 0;
#X connect 30 0 14 0;
#X connect 34 0 4 0;
#X connect 34 0 3 0;
#X connect 34 0 5 0;
#X connect 34 1 0 0;
#X connect 34 1 1 0;
#X connect 34 1 2 0;
#X connect 34 2 8 0;
#X connect 34 2 9 0;
#X connect 34 2 41 0;
#X connect 35 0 34 0;
#X connect 36 0 25 0;
#X connect 37 0 25 0;
#X connect 38 0 36 0;
#X connect 38 0 36 1;
#X connect 39 0 37 1;
#X connect 40 0 27 0;
#X connect 41 0 33 0;
#X connect 42 0 48 0;
#X connect 43 0 58 0;
#X connect 43 1 59 0;
#X connect 44 0 49 0;
#X connect 45 0 60 0;
#X connect 45 1 61 0;
#X connect 48 0 43 0;
#X connect 49 0 45 0;
#X connect 50 0 46 0;
#X connect 51 0 46 0;
#X connect 52 0 47 0;
#X connect 53 0 47 0;
#X connect 54 0 55 1;
#X connect 54 0 56 0;
#X connect 55 0 18 0;
#X connect 56 1 18 0;
#X connect 57 0 35 0;
#X connect 58 0 50 0;
#X connect 59 0 51 0;
#X connect 60 0 53 0;
#X connect 61 0 52 0;
#X restore 234 159 pd \$0-GUI-SAMPLER;
#N canvas 285 148 604 339 \$0-ARGS 0;
#X obj 303 108 samplerate~;
#X obj 303 132 s \$0-samplerate;
#X obj 268 156 s \$0-id-table;
#X msg 268 133 0;
#X obj 133 297 outlet;
#X msg 234 202 20000;
#X text 275 199 ms;
#X obj 234 76 t b b b b;
#X obj 251 178 s \$0-init-phasor;
#X obj 118 165 symbol;
#X obj 43 188 select symbol;
#X obj 43 137 t b b;
#X obj 43 162 symbol \$1;
#X msg 44 215 snd-outside 1 \, snd-bank \$1;
#X msg 234 223 fade 10 \, auto-play 0 \, auto-pause 0 \, auto-length
0 \, auto-update 1 \, loop 1 \, start 0 \, end 1 \, speed 1 \, rec-time
\$1 \, size \$1 \, mode 0 \, on 1 \, resize;
#X obj 234 51 inlet;
#X connect 0 0 1 0;
#X connect 3 0 2 0;
#X connect 5 0 14 0;
#X connect 7 0 5 0;
#X connect 7 0 11 0;
#X connect 7 1 8 0;
#X connect 7 2 3 0;
#X connect 7 3 0 0;
#X connect 9 0 10 1;
#X connect 10 1 13 0;
#X connect 11 0 12 0;
#X connect 11 1 9 0;
#X connect 12 0 10 0;
#X connect 13 0 4 0;
#X connect 14 0 4 0;
#X connect 15 0 7 0;
#X restore 278 113 pd \$0-ARGS;
#X obj 245 346 outlet;
#X obj 474 332 outlet;
#X text 476 348 bang;
#N canvas 1 169 675 453 \$0-POSITION 0;
#X obj 164 207 snapshot~;
#X obj 73 191 inlet~;
#X obj 164 85 r \$0-mode;
#X obj 207 309 s \$0-pos;
#X obj 164 106 == 1;
#X obj 164 278 spigot;
#X obj 197 233 r \$0-mode-scratch;
#X obj 197 255 == 0;
#X obj 266 392 change;
#X obj 266 349 r \$0-length;
#X msg 164 374 set \$1;
#X obj 111 346 line;
#X msg 111 322 \$1 50;
#X obj 164 397 s \$0-pos-in;
#X text 159 9 Switch on only if playing \;;
#X obj 202 137 switch~;
#X obj 219 276 tgl 15 0 empty empty empty 17 7 0 10 -187776 -33289
-1 0 1;
#X obj 166 349 spigot;
#X text 264 328 If too speed \, stop display;
#X obj 266 371 > 130;
#X obj 294 50 r \$0-length;
#X floatatom 293 194 5 0 0 0 - - -, f 5;
#X obj 164 179 metro 50;
#X obj 294 124 expr ($f1-100)/(500-100);
#X obj 294 81 min 500;
#X obj 294 101 max 100;
#X obj 294 148 expr $f1*(50-5)+5;
#X obj 294 173 int;
#X text 488 156 mapping;
#X text 359 199 from 5 to 50ms;
#X floatatom 399 88 5 0 0 0 - - -, f 5;
#X connect 0 0 5 0;
#X connect 1 0 0 0;
#X connect 2 0 4 0;
#X connect 4 0 15 0;
#X connect 4 0 22 0;
#X connect 5 0 3 0;
#X connect 5 0 17 0;
#X connect 6 0 7 0;
#X connect 7 0 5 1;
#X connect 7 0 16 0;
#X connect 8 0 17 1;
#X connect 9 0 19 0;
#X connect 10 0 13 0;
#X connect 11 0 10 0;
#X connect 12 0 11 0;
#X connect 17 0 10 0;
#X connect 19 0 8 0;
#X connect 20 0 24 0;
#X connect 21 0 22 1;
#X connect 22 0 0 0;
#X connect 23 0 26 0;
#X connect 24 0 25 0;
#X connect 25 0 23 0;
#X connect 26 0 27 0;
#X connect 27 0 21 0;
#X connect 30 0 24 0;
#X restore 108 312 pd \$0-POSITION;
#X obj 318 306 r \$0-pos;
#X msg 245 326 length \$1;
#X obj 245 306 r \$0-length;
#X msg 318 329 pos \$1;
#X text 245 288 ms;
#N canvas 172 90 493 606 \$0-FILE-RESIZE 0;
#X obj 103 142 f 1;
#X obj 118 121 r \$0-id-table;
#X obj 103 93 t b a;
#X obj 103 67 r \$0-save-file;
#X obj 37 56 r \$0-save;
#X obj 103 166 pack f \$0 s;
#X obj 37 76 savepanel;
#X obj 103 210 soundfiler;
#X msg 103 187 write \$3 \$2-smp-\$1;
#X text 31 24 SAVE FILE \; ----------------------;
#X obj 327 306 soundfiler;
#X obj 253 80 openpanel;
#X obj 327 120 t b s;
#X obj 327 265 pack f \$0 s;
#X floatatom 327 327 8 0 0 0 - - -, f 8;
#X obj 327 97 symbol;
#X obj 342 153 r \$0-id-table;
#X obj 253 59 r \$0-open;
#X text 249 24 OPEN FILE \; ------------------------;
#X obj 327 348 s \$0-size;
#X text 327 372 without resizing...;
#X obj 37 334 f 1;
#X obj 52 313 r \$0-id-table;
#X obj 37 287 r \$0-resize;
#X obj 37 355 pack f \$0 44100;
#X msg 37 377 \; \$2-smp-\$1 resize \$3;
#X msg 327 285 read \$3 \$2-smp-\$1;
#X obj 327 203 == 0;
#X obj 339 234 s \$0-id-table;
#X obj 327 178 f 1;
#X obj 124 335 r \$0-size;
#X obj 327 73 r \$0-open-file;
#X text 35 254 RESIZE \; ----------------------;
#X obj 42 529 s \$0-smp-1;
#X obj 49 506 s \$0-smp-0;
#X msg 42 484 resize \$1;
#X obj 45 448 r \$0-size;
#X connect 0 0 5 0;
#X connect 1 0 0 1;
#X connect 2 0 0 0;
#X connect 2 1 5 2;
#X connect 3 0 2 0;
#X connect 4 0 6 0;
#X connect 5 0 8 0;
#X connect 6 0 2 0;
#X connect 8 0 7 0;
#X connect 10 0 14 0;
#X connect 11 0 15 0;
#X connect 12 0 29 0;
#X connect 12 1 13 2;
#X connect 13 0 26 0;
#X connect 14 0 19 0;
#X connect 15 0 12 0;
#X connect 16 0 29 1;
#X connect 17 0 11 0;
#X connect 21 0 24 0;
#X connect 22 0 21 1;
#X connect 23 0 21 0;
#X connect 24 0 25 0;
#X connect 26 0 10 0;
#X connect 27 0 13 0;
#X connect 27 0 28 0;
#X connect 29 0 27 0;
#X connect 30 0 24 2;
#X connect 31 0 15 0;
#X connect 35 0 33 0;
#X connect 35 0 34 0;
#X restore 50 243 pd \$0-FILE-RESIZE;
#X obj 180 97 tgl 10 0 \$0-auto-length \$0-auto-length-in C 2 6 1 9
-187776 -33289 -1 0 1;
#X obj 180 107 tgl 10 0 \$0-auto-update \$0-auto-update-in U 2 6 1
9 -187776 -33289 -1 0 1;
#X obj 53 97 hsl 125 10 0 1 0 0 \$0-start \$0-start-in start 1 6 1
9 -187776 -33289 -1 0 1;
#X obj 53 107 hsl 125 10 0 1 0 0 \$0-end \$0-end-in end 1 6 1 9 -187776
-33289 -1 0 1;
#N canvas 1 78 1282 635 \$0-MODES-AUTO 0;
#X text 232 488 speed;
#X obj 357 305 r \$0-speed;
#X msg 96 235 0;
#X obj 24 295 spigot;
#X msg 57 266 1;
#X msg 170 278 0;
#X obj 24 140 r \$0-mode;
#X obj 233 262 f;
#X obj 248 237 r \$0-speed;
#X obj 243 289 s \$0-speed-in;
#X obj 96 256 s \$0-phase;
#X obj 426 65 r \$0-mode;
#X obj 426 85 == 1;
#X obj 426 126 sel 1 0;
#X obj 454 194 mod 2;
#X obj 426 174 f;
#X obj 454 173 + 1;
#X msg 445 150 0;
#X msg 381 227 0;
#X obj 357 332 spigot 1;
#X obj 426 315 == 0;
#X obj 233 471 outlet;
#X obj 233 447 f;
#X obj 426 107 spigot;
#X obj 505 66 r \$0-auto-pause;
#X obj 505 107 sel 0;
#X msg 505 315 1;
#X obj 142 177 == 0;
#X obj 142 157 r \$0-auto-pause;
#X obj 109 198 spigot;
#X obj 641 106 s \$0-mode-scratch;
#X obj 641 61 r \$0-mode;
#X obj 641 83 == 0;
#X obj 772 148 del 100;
#X obj 772 105 spigot;
#X msg 842 107 stop;
#X obj 772 193 s \$0-mode-in;
#X msg 772 171 1;
#X obj 842 169 - 5;
#X obj 772 62 r \$0-mode;
#X obj 842 83 sel 0;
#X text 771 28 AUTO-PLAY \; -----------------;
#X text 639 30 MODE SCRATCH \; -------------;
#X obj 842 62 r \$0-auto-play;
#X obj 772 83 sel 2;
#X obj 842 148 r \$0-rec-time;
#X text 400 29 MODE PAUSE \; ---------------------------------;
#X obj 24 162 sel 2 0 1;
#X msg 76 339 0;
#X obj 57 214 t b b b;
#X text 23 105 MODES REC/STOP/PLAY \; --------------------;
#X obj 362 198 sel 0 1;
#X obj 637 278 r \$0-start;
#X obj 713 278 r \$0-end;
#X obj 637 467 delay 100;
#X obj 713 467 delay 100;
#X obj 637 445 b;
#X obj 713 445 b;
#X obj 713 494 s \$0-update;
#X obj 637 409 spigot;
#X obj 746 301 r \$0-auto-update;
#X text 771 12 when record is finished;
#X obj 781 404 r \$0-mode;
#X obj 781 426 sel 0;
#X msg 781 450 stop;
#X obj 713 422 spigot;
#X obj 774 322 r \$0-mode;
#X obj 746 392 &&;
#X obj 774 363 t b f;
#X text 634 241 AUTO-UPDATE \; -----------------;
#X obj 964 23 r \$0-slice-nb;
#X obj 1092 74 r \$0-slice;
#X msg 972 128 1 \$1;
#X obj 972 151 /;
#X obj 972 178 s \$0-chunk;
#X obj 1102 204 s \$0-start-in;
#X obj 1059 153 /;
#X obj 972 90 max 1;
#X obj 1092 96 max 0;
#X obj 1077 119 min 10;
#X text 1091 27 SLICES \; -----------------;
#X msg 1139 119 1;
#X obj 976 64 t f b;
#X obj 1066 177 t b f;
#X msg 1061 200 1;
#X obj 1091 236 s \$0-mode-in;
#X obj 1124 147 s \$0-auto-length-in;
#X obj 774 343 < 2;
#X obj 171 222 t b b b;
#X obj 987 254 s \$0-update;
#X floatatom 273 269 5 0 0 0 - - -, f 5;
#X floatatom 355 368 5 0 0 0 - - -, f 5;
#X floatatom 297 448 5 0 0 0 - - -, f 5;
#X msg 971 563 0;
#X msg 937 419 stop;
#X obj 937 356 r \$0-mode;
#X obj 937 391 sel 0 2 1;
#X text 931 321 Oneshot \; -----------------;
#X obj 971 595 s \$0-mode-in;
#X obj 971 449 delay 60000;
#X obj 1004 485 r \$0-loop;
#X obj 1004 506 == 0;
#X obj 971 529 spigot;
#X obj 1034 378 r \$0-length;
#X obj 1034 400 i;
#X obj 1034 422 - 1;
#X obj 905 468 spigot;
#X obj 1016 570 s \$0-bg-end;
#X floatatom 1079 424 5 0 0 0 - - -, f 5;
#X obj 985 230 bng 15 250 50 0 empty empty empty 17 7 0 10 -187776
-33289 -1;
#X obj 957 45 t b f;
#X connect 1 0 19 0;
#X connect 2 0 10 0;
#X connect 3 0 48 0;
#X connect 4 0 3 1;
#X connect 5 0 3 1;
#X connect 6 0 47 0;
#X connect 7 0 9 0;
#X connect 7 0 22 0;
#X connect 8 0 7 1;
#X connect 8 0 90 0;
#X connect 11 0 12 0;
#X connect 12 0 23 0;
#X connect 13 0 15 0;
#X connect 13 1 17 0;
#X connect 14 0 15 1;
#X connect 15 0 16 0;
#X connect 15 0 20 0;
#X connect 15 0 51 0;
#X connect 16 0 14 0;
#X connect 17 0 15 1;
#X connect 18 0 22 0;
#X connect 19 0 22 0;
#X connect 19 0 91 0;
#X connect 20 0 19 1;
#X connect 22 0 21 0;
#X connect 22 0 92 0;
#X connect 23 0 13 0;
#X connect 24 0 23 1;
#X connect 24 0 25 0;
#X connect 25 0 26 0;
#X connect 26 0 19 1;
#X connect 27 0 29 1;
#X connect 28 0 27 0;
#X connect 29 0 2 0;
#X connect 29 0 88 0;
#X connect 31 0 32 0;
#X connect 32 0 30 0;
#X connect 33 0 37 0;
#X connect 34 0 33 0;
#X connect 35 0 33 0;
#X connect 37 0 36 0;
#X connect 38 0 33 1;
#X connect 39 0 44 0;
#X connect 40 0 35 0;
#X connect 43 0 40 0;
#X connect 43 0 34 1;
#X connect 44 0 34 0;
#X connect 45 0 38 0;
#X connect 47 0 3 0;
#X connect 47 1 49 0;
#X connect 47 2 29 0;
#X connect 48 0 22 0;
#X connect 49 0 4 0;
#X connect 49 1 48 0;
#X connect 49 2 2 0;
#X connect 51 0 88 0;
#X connect 51 1 18 0;
#X connect 52 0 59 0;
#X connect 53 0 65 0;
#X connect 54 0 58 0;
#X connect 55 0 58 0;
#X connect 56 0 54 0;
#X connect 57 0 55 0;
#X connect 59 0 56 0;
#X connect 60 0 67 0;
#X connect 62 0 63 0;
#X connect 63 0 64 0;
#X connect 64 0 55 0;
#X connect 64 0 54 0;
#X connect 65 0 57 0;
#X connect 66 0 87 0;
#X connect 67 0 59 1;
#X connect 67 0 65 1;
#X connect 68 0 67 0;
#X connect 68 1 67 1;
#X connect 70 0 110 0;
#X connect 71 0 78 0;
#X connect 72 0 73 0;
#X connect 73 0 74 0;
#X connect 76 0 83 0;
#X connect 77 0 72 0;
#X connect 77 0 76 1;
#X connect 77 0 79 1;
#X connect 78 0 79 0;
#X connect 79 0 76 0;
#X connect 81 0 86 0;
#X connect 82 0 77 0;
#X connect 82 1 81 0;
#X connect 83 0 84 0;
#X connect 83 1 75 0;
#X connect 84 0 85 0;
#X connect 87 0 68 0;
#X connect 88 0 7 0;
#X connect 88 1 2 0;
#X connect 88 2 5 0;
#X connect 93 0 98 0;
#X connect 94 0 99 0;
#X connect 95 0 96 0;
#X connect 96 0 94 0;
#X connect 96 1 94 0;
#X connect 96 2 99 0;
#X connect 99 0 102 0;
#X connect 99 0 106 0;
#X connect 100 0 101 0;
#X connect 100 0 106 1;
#X connect 101 0 102 1;
#X connect 102 0 93 0;
#X connect 102 0 107 0;
#X connect 103 0 104 0;
#X connect 103 0 108 0;
#X connect 104 0 105 0;
#X connect 105 0 99 1;
#X connect 106 0 99 0;
#X connect 109 0 89 0;
#X connect 110 0 109 0;
#X connect 110 1 82 0;
#X restore 51 264 pd \$0-MODES-AUTO;
#X obj 377 306 r \$0-freq;
#X msg 377 329 freq \$1;
#X obj 477 308 r \$0-bg-end;
#X obj 448 245 r \$0-bg;
#X obj 487 186 r \$0-loop;
#X obj 462 270 spigot;
#X obj 505 230 == 0;
#X obj 278 93 initbang;
#X connect 4 0 7 0;
#X connect 12 0 11 0;
#X connect 13 0 5 0;
#X connect 13 1 25 0;
#X connect 21 0 11 0;
#X connect 26 0 29 0;
#X connect 27 0 22 0;
#X connect 28 0 27 0;
#X connect 29 0 22 0;
#X connect 36 0 13 0;
#X connect 37 0 38 0;
#X connect 38 0 22 0;
#X connect 39 0 23 0;
#X connect 40 0 42 0;
#X connect 41 0 43 0;
#X connect 42 0 23 0;
#X connect 43 0 42 1;
#X connect 44 0 21 0;
#X coords 0 -1 1 1 140 60 1 50 70;
