#N canvas 120 104 689 603 10;
#X obj 138 255 inlet;
#X obj 132 539 outlet~;
#X obj 132 355 gate 4;
#X obj 90 301 f;
#X obj 122 302 + 1;
#X obj 122 325 % 4;
#X obj 90 325 + 1;
#X obj 132 517 *~ 1;
#X obj 138 275 t b f;
#N canvas 631 214 972 588 gaga 0;
#X obj 612 229 mtof;
#X obj 103 436 *~;
#X obj 722 373 osc~;
#X obj 767 286 * 2;
#X obj 722 307 pack f f;
#X obj 722 393 *~ 0.3;
#X obj 722 353 line~;
#X msg 722 329 \$1 \, \$2 2;
#X obj 612 310 pack f f;
#X obj 612 395 *~ 0.3;
#X obj 612 355 line~;
#X msg 612 331 \$1 \, \$2 2;
#X obj 612 375 osc~;
#X obj 657 288 * 4;
#X obj 103 390 ead~ 10 1000;
#X obj 103 72 t b f;
#X obj 103 46 inlet;
#X obj 103 458 outlet~;
#X obj 612 252 t f f f f;
#X obj 137 254 r \$0-attack;
#X obj 220 255 r \$0-decay;
#X obj 301 292 / 100;
#X obj 301 267 random 30;
#X obj 301 313 + 0.7;
#X text 364 237 leger random de 30%;
#X obj 447 305 / 100;
#X obj 447 280 random 30;
#X obj 447 326 + 0.7;
#X obj 137 330 *;
#X obj 172 343 *;
#X obj 301 230 r \$0-init;
#X connect 0 0 18 0;
#X connect 1 0 17 0;
#X connect 2 0 5 0;
#X connect 3 0 4 1;
#X connect 4 0 7 0;
#X connect 5 0 1 1;
#X connect 6 0 2 0;
#X connect 7 0 6 0;
#X connect 8 0 11 0;
#X connect 9 0 1 1;
#X connect 10 0 12 0;
#X connect 11 0 10 0;
#X connect 12 0 9 0;
#X connect 13 0 8 1;
#X connect 14 0 1 0;
#X connect 15 0 14 0;
#X connect 15 1 0 0;
#X connect 16 0 15 0;
#X connect 18 0 8 0;
#X connect 18 1 13 0;
#X connect 18 2 4 0;
#X connect 18 3 3 0;
#X connect 19 0 28 0;
#X connect 20 0 29 0;
#X connect 21 0 23 0;
#X connect 22 0 21 0;
#X connect 23 0 28 1;
#X connect 25 0 27 0;
#X connect 26 0 25 0;
#X connect 27 0 29 1;
#X connect 28 0 14 1;
#X connect 29 0 14 2;
#X connect 30 0 22 0;
#X connect 30 0 26 0;
#X restore 283 470 pd gaga;
#N canvas 633 209 972 588 gaga 0;
#X obj 612 229 mtof;
#X obj 103 436 *~;
#X obj 722 373 osc~;
#X obj 767 286 * 2;
#X obj 722 307 pack f f;
#X obj 722 393 *~ 0.3;
#X obj 722 353 line~;
#X msg 722 329 \$1 \, \$2 2;
#X obj 612 310 pack f f;
#X obj 612 395 *~ 0.3;
#X obj 612 355 line~;
#X msg 612 331 \$1 \, \$2 2;
#X obj 612 375 osc~;
#X obj 657 288 * 4;
#X obj 103 390 ead~ 10 1000;
#X obj 103 72 t b f;
#X obj 103 46 inlet;
#X obj 103 458 outlet~;
#X obj 612 252 t f f f f;
#X obj 137 254 r \$0-attack;
#X obj 220 255 r \$0-decay;
#X obj 301 292 / 100;
#X obj 301 267 random 30;
#X obj 301 313 + 0.7;
#X text 364 237 leger random de 30%;
#X obj 447 305 / 100;
#X obj 447 280 random 30;
#X obj 447 326 + 0.7;
#X obj 137 330 *;
#X obj 172 343 *;
#X obj 301 228 r \$0-init;
#X connect 0 0 18 0;
#X connect 1 0 17 0;
#X connect 2 0 5 0;
#X connect 3 0 4 1;
#X connect 4 0 7 0;
#X connect 5 0 1 1;
#X connect 6 0 2 0;
#X connect 7 0 6 0;
#X connect 8 0 11 0;
#X connect 9 0 1 1;
#X connect 10 0 12 0;
#X connect 11 0 10 0;
#X connect 12 0 9 0;
#X connect 13 0 8 1;
#X connect 14 0 1 0;
#X connect 15 0 14 0;
#X connect 15 1 0 0;
#X connect 16 0 15 0;
#X connect 18 0 8 0;
#X connect 18 1 13 0;
#X connect 18 2 4 0;
#X connect 18 3 3 0;
#X connect 19 0 28 0;
#X connect 20 0 29 0;
#X connect 21 0 23 0;
#X connect 22 0 21 0;
#X connect 23 0 28 1;
#X connect 25 0 27 0;
#X connect 26 0 25 0;
#X connect 27 0 29 1;
#X connect 28 0 14 1;
#X connect 29 0 14 2;
#X connect 30 0 22 0;
#X connect 30 0 26 0;
#X restore 233 470 pd gaga;
#N canvas 635 204 972 588 gaga 0;
#X obj 612 229 mtof;
#X obj 103 436 *~;
#X obj 722 373 osc~;
#X obj 767 286 * 2;
#X obj 722 307 pack f f;
#X obj 722 393 *~ 0.3;
#X obj 722 353 line~;
#X msg 722 329 \$1 \, \$2 2;
#X obj 612 310 pack f f;
#X obj 612 395 *~ 0.3;
#X obj 612 355 line~;
#X msg 612 331 \$1 \, \$2 2;
#X obj 612 375 osc~;
#X obj 657 288 * 4;
#X obj 103 390 ead~ 10 1000;
#X obj 103 72 t b f;
#X obj 103 46 inlet;
#X obj 103 458 outlet~;
#X obj 612 252 t f f f f;
#X obj 137 254 r \$0-attack;
#X obj 220 255 r \$0-decay;
#X obj 301 292 / 100;
#X obj 301 267 random 30;
#X obj 301 313 + 0.7;
#X text 364 237 leger random de 30%;
#X obj 447 305 / 100;
#X obj 447 280 random 30;
#X obj 447 326 + 0.7;
#X obj 137 330 *;
#X obj 172 343 *;
#X obj 301 228 r \$0-init;
#X connect 0 0 18 0;
#X connect 1 0 17 0;
#X connect 2 0 5 0;
#X connect 3 0 4 1;
#X connect 4 0 7 0;
#X connect 5 0 1 1;
#X connect 6 0 2 0;
#X connect 7 0 6 0;
#X connect 8 0 11 0;
#X connect 9 0 1 1;
#X connect 10 0 12 0;
#X connect 11 0 10 0;
#X connect 12 0 9 0;
#X connect 13 0 8 1;
#X connect 14 0 1 0;
#X connect 15 0 14 0;
#X connect 15 1 0 0;
#X connect 16 0 15 0;
#X connect 18 0 8 0;
#X connect 18 1 13 0;
#X connect 18 2 4 0;
#X connect 18 3 3 0;
#X connect 19 0 28 0;
#X connect 20 0 29 0;
#X connect 21 0 23 0;
#X connect 22 0 21 0;
#X connect 23 0 28 1;
#X connect 25 0 27 0;
#X connect 26 0 25 0;
#X connect 27 0 29 1;
#X connect 28 0 14 1;
#X connect 29 0 14 2;
#X connect 30 0 22 0;
#X connect 30 0 26 0;
#X restore 183 470 pd gaga;
#N canvas 635 204 972 588 gaga 0;
#X obj 612 229 mtof;
#X obj 103 436 *~;
#X obj 722 373 osc~;
#X obj 767 286 * 2;
#X obj 722 307 pack f f;
#X obj 722 393 *~ 0.3;
#X obj 722 353 line~;
#X msg 722 329 \$1 \, \$2 2;
#X obj 612 310 pack f f;
#X obj 612 395 *~ 0.3;
#X obj 612 355 line~;
#X msg 612 331 \$1 \, \$2 2;
#X obj 612 375 osc~;
#X obj 657 288 * 4;
#X obj 103 390 ead~ 10 1000;
#X obj 103 72 t b f;
#X obj 103 46 inlet;
#X obj 103 458 outlet~;
#X obj 612 252 t f f f f;
#X obj 137 254 r \$0-attack;
#X obj 220 255 r \$0-decay;
#X obj 301 292 / 100;
#X obj 301 267 random 30;
#X obj 301 313 + 0.7;
#X text 364 237 leger random de 30%;
#X obj 447 305 / 100;
#X obj 447 280 random 30;
#X obj 447 326 + 0.7;
#X obj 137 330 *;
#X obj 172 343 *;
#X obj 301 228 r \$0-init;
#X connect 0 0 18 0;
#X connect 1 0 17 0;
#X connect 2 0 5 0;
#X connect 3 0 4 1;
#X connect 4 0 7 0;
#X connect 5 0 1 1;
#X connect 6 0 2 0;
#X connect 7 0 6 0;
#X connect 8 0 11 0;
#X connect 9 0 1 1;
#X connect 10 0 12 0;
#X connect 11 0 10 0;
#X connect 12 0 9 0;
#X connect 13 0 8 1;
#X connect 14 0 1 0;
#X connect 15 0 14 0;
#X connect 15 1 0 0;
#X connect 16 0 15 0;
#X connect 18 0 8 0;
#X connect 18 1 13 0;
#X connect 18 2 4 0;
#X connect 18 3 3 0;
#X connect 19 0 28 0;
#X connect 20 0 29 0;
#X connect 21 0 23 0;
#X connect 22 0 21 0;
#X connect 23 0 28 1;
#X connect 25 0 27 0;
#X connect 26 0 25 0;
#X connect 27 0 29 1;
#X connect 28 0 14 1;
#X connect 29 0 14 2;
#X connect 30 0 22 0;
#X connect 30 0 26 0;
#X restore 133 470 pd gaga;
#X obj 307 90 s \$0-attack-in;
#X obj 423 91 s \$0-decay-in;
#X obj 307 37 inlet;
#X obj 423 38 inlet;
#X obj 356 154 initbang;
#X obj 356 235 f \$1;
#X obj 451 232 f \$2;
#X obj 356 304 s \$0-attack-in;
#X obj 451 304 s \$0-decay-in;
#X obj 356 259 moses 0.0001;
#X msg 356 283 10;
#X obj 451 256 moses 0.0001;
#X msg 451 280 1000;
#X obj 276 227 s \$0-init;
#X obj 380 188 delay 10;
#X obj 101 116 cnv 15 98 21 empty empty empty 20 12 1 9 -187776 -33289
0;
#X obj 100 127 nbx 4 10 0 100000 0 0 \$0-attack \$0-attack-in attack
2 -5 1 9 -187776 -33289 -33289 10 256;
#X obj 135 127 nbx 4 10 0 100000 0 0 \$0-decay \$0-decay-in decay 0
-5 1 9 -187776 -33289 -33289 1000 256;
#X connect 0 0 8 0;
#X connect 2 0 12 0;
#X connect 2 1 11 0;
#X connect 2 2 10 0;
#X connect 2 3 9 0;
#X connect 3 0 6 0;
#X connect 3 0 4 0;
#X connect 4 0 5 0;
#X connect 5 0 3 1;
#X connect 6 0 2 0;
#X connect 7 0 1 0;
#X connect 8 0 3 0;
#X connect 8 1 2 1;
#X connect 9 0 7 0;
#X connect 10 0 7 0;
#X connect 11 0 7 0;
#X connect 12 0 7 0;
#X connect 15 0 13 0;
#X connect 16 0 14 0;
#X connect 17 0 26 0;
#X connect 17 0 27 0;
#X connect 18 0 22 0;
#X connect 19 0 24 0;
#X connect 22 0 23 0;
#X connect 22 1 20 0;
#X connect 23 0 20 0;
#X connect 24 0 25 0;
#X connect 24 1 21 0;
#X connect 25 0 21 0;
#X connect 27 0 18 0;
#X connect 27 0 19 0;
#X coords 0 -1 1 1 100 40 1 100 100;
