#N canvas 263 142 656 432 10;
#X floatatom 32 103 6 0 0 0 - - -;
#X floatatom 77 103 6 0 0 0 - - -;
#X floatatom 121 103 6 0 0 0 - - -;
#N canvas 308 397 807 356 touch 0;
#X obj 100 159 cnv 10 200 10 empty empty empty 20 12 0 14 -162280 -66577
0;
#X obj -50 14 & 1;
#X obj 102 153 tgl 15 0 empty empty empty 17 7 0 10 -262144 -1 -1 0
2;
#X obj 124 153 tgl 15 0 empty empty empty 17 7 0 10 -262144 -1 -1 0
1;
#X obj 149 153 tgl 15 0 empty empty empty 17 7 0 10 -262144 -1 -1 0
8;
#X obj 170 153 tgl 15 0 empty empty empty 17 7 0 10 -262144 -1 -1 0
4;
#X obj 221 154 tgl 15 0 empty empty empty 17 7 0 10 -262144 -1 -1 0
16;
#X obj 246 153 tgl 15 0 empty empty empty 17 7 0 10 -262144 -1 -1 0
64;
#X obj 164 -44 inlet;
#X obj -24 268 outlet;
#X obj -29 205 select 1;
#X obj 405 103 cnv 15 100 60 empty empty empty 20 12 0 14 -260097 -66577
0;
#X obj 41 267 outlet;
#X obj 15 13 & 2;
#X obj 36 204 select 2;
#X obj 103 265 outlet;
#X obj 168 264 outlet;
#X obj 77 12 & 4;
#X obj 99 201 select 4;
#X obj 142 10 & 8;
#X obj 163 201 select 8;
#X obj 234 263 outlet;
#X obj 323 260 outlet;
#X obj 208 9 & 16;
#X obj 229 200 select 16;
#X obj 283 7 & 32;
#X obj 304 196 select 32;
#X text 146 137 Noeud;
#X text 102 137 Pieds;
#X text 192 134 Oreilles;
#X text 247 138 Antenne;
#X obj 401 258 outlet;
#X obj 361 5 & 64;
#X obj 383 194 select 64;
#X obj 194 153 tgl 15 0 empty empty empty 17 7 0 10 -262144 -1 -1 0
32;
#X obj 145 109 cnv 15 100 17 empty empty ZONES 20 10 1 14 -260097 -66577
0;
#X obj 187 141 cnv 3 3 25 empty empty empty 20 12 0 14 -233017 -66577
0;
#X obj 241 143 cnv 3 3 25 empty empty empty 20 12 0 14 -233017 -66577
0;
#X obj 143 145 cnv 3 3 25 empty empty empty 20 12 0 14 -233017 -66577
0;
#X obj 485 262 outlet;
#X obj 563 260 outlet;
#X obj -23 239 tgl 15 0 empty empty empty 17 7 0 10 -262144 -1 -1 1
1;
#X obj 39 236 tgl 15 0 empty empty empty 17 7 0 10 -262144 -1 -1 0
1;
#X obj 105 239 tgl 15 0 empty empty empty 17 7 0 10 -262144 -1 -1 1
1;
#X obj 163 237 tgl 15 0 empty empty empty 17 7 0 10 -262144 -1 -1 1
1;
#X obj 230 234 tgl 15 0 empty empty empty 17 7 0 10 -262144 -1 -1 0
1;
#X obj 311 231 tgl 15 0 empty empty empty 17 7 0 10 -262144 -1 -1 0
1;
#X obj 389 231 tgl 15 0 empty empty empty 17 7 0 10 -262144 -1 -1 1
1;
#X connect 1 0 10 0;
#X connect 1 0 3 0;
#X connect 8 0 1 0;
#X connect 8 0 13 0;
#X connect 8 0 17 0;
#X connect 8 0 19 0;
#X connect 8 0 23 0;
#X connect 8 0 25 0;
#X connect 8 0 32 0;
#X connect 8 0 40 0;
#X connect 10 0 42 0;
#X connect 13 0 14 0;
#X connect 13 0 2 0;
#X connect 14 0 41 0;
#X connect 17 0 18 0;
#X connect 17 0 5 0;
#X connect 18 0 44 0;
#X connect 19 0 20 0;
#X connect 19 0 4 0;
#X connect 20 0 43 0;
#X connect 23 0 24 0;
#X connect 23 0 6 0;
#X connect 24 0 46 0;
#X connect 25 0 26 0;
#X connect 25 0 34 0;
#X connect 26 0 45 0;
#X connect 32 0 33 0;
#X connect 32 0 7 0;
#X connect 33 0 47 0;
#X connect 41 0 9 0;
#X connect 42 0 12 0;
#X connect 43 0 15 0;
#X connect 44 0 16 0;
#X connect 45 0 21 0;
#X connect 46 0 22 0;
#X connect 47 0 31 0;
#X coords 0 -1 1 1 200 70 2 100 100;
#X restore 241 88 pd touch;
#X floatatom 241 65 5 0 0 0 - - -;
#N canvas 311 222 614 541 calin 0;
#X obj 301 228 inlet;
#X obj 308 321 outlet;
#X obj 306 261 & 127;
#X obj 311 293 sel 127;
#X obj 101 100 cnv 15 120 160 empty empty CALINS! 35 150 0 14 -228856
-260097 0;
#X obj 163 173 image calin.gif;
#X connect 0 0 2 0;
#X connect 2 0 3 0;
#X connect 3 0 1 0;
#X coords 0 -1 1 1 120 160 1 100 100;
#X restore 516 83 pd calin;
#N canvas 181 100 1113 650 apidou 0;
#X obj 720 458 print raw;
#X obj 513 302 comport 0 115200;
#N canvas 248 198 687 228 conv 0;
#X obj 188 167 outlet;
#X obj 188 142 expr if ($i1 & 32768 \, -1 + -$i1 ^ 0xFFFF \, $i1);
#X obj 153 48 inlet;
#X obj 248 60 inlet;
#X obj 188 119 +;
#X obj 207 95 << 8;
#X text 352 105 Conversion des données brutes vers un entier signé
;
#X connect 1 0 0 0;
#X connect 2 0 4 0;
#X connect 3 0 5 0;
#X connect 4 0 1 0;
#X connect 5 0 4 1;
#X restore 372 410 pd conv;
#X obj 513 271 r com;
#X obj 648 195 s com;
#X msg 648 171 info;
#X obj 670 326 route open;
#X obj 670 349 tgl 15 0 \$0-connect empty Connected 17 7 0 10 -262144
-1 -1 1 1;
#X obj 613 102 loadbang;
#X obj 571 95 bng 15 250 50 0 empty empty empty 17 7 0 10 -262144 -1
-1;
#X obj 613 125 metro 500;
#X obj 720 434 spigot;
#X obj 763 409 tgl 15 0 empty empty empty 17 7 0 10 -262144 -1 -1 0
1;
#X obj 613 170 bng 15 250 50 0 empty empty empty 17 7 0 10 -262144
-1 -1;
#X obj 337 512 outlet;
#X obj 303 168 prepend /dev/pts/;
#X floatatom 303 118 5 0 0 0 - - -;
#X obj 134 139 image apidou.gif;
#X obj 161 154 tgl 10 0 \$0-debug empty debug 12 5 0 10 -257985 -1
-1 0 1;
#X obj 763 385 r \$0-debug;
#X obj 168 139 nbx 2 10 1 50 0 0 \$0-port empty port 0 -8 0 10 -262144
-1 -1 5 256;
#X obj 303 226 l2s;
#X msg 347 197 symbol;
#X obj 303 140 t f b;
#X obj 303 93 r \$0-port;
#X obj 303 253 prepend devicename;
#X obj 191 109 tgl 10 0 empty \$0-connect connect -42 5 0 10 -261682
-1 -1 1 1;
#X obj 512 329 zl group 8;
#X obj 566 511 outlet;
#X text 108 181 X;
#X text 134 181 Y;
#X text 158 181 Z;
#X text 186 181 Touch;
#X obj 566 464 change;
#X obj 337 463 / 16384;
#X obj 415 379 unpack f f f f f f f f;
#X obj 337 442 nbx 6 14 -1e+37 1e+37 0 0 empty empty empty 0 -8 0 10
-262144 -1 -1 2480 256;
#X obj 566 442 nbx 8 14 -1e+37 1e+37 0 0 empty empty empty 0 -8 0 10
-262144 -1 -1 0 256;
#N canvas 248 198 687 228 conv 0;
#X obj 188 167 outlet;
#X obj 188 142 expr if ($i1 & 32768 \, -1 + -$i1 ^ 0xFFFF \, $i1);
#X obj 153 48 inlet;
#X obj 248 60 inlet;
#X obj 188 119 +;
#X obj 207 95 << 8;
#X text 352 105 Conversion des données brutes vers un entier signé
;
#X connect 1 0 0 0;
#X connect 2 0 4 0;
#X connect 3 0 5 0;
#X connect 4 0 1 0;
#X connect 5 0 4 1;
#X restore 424 410 pd conv;
#N canvas 248 198 687 228 conv 0;
#X obj 188 167 outlet;
#X obj 188 142 expr if ($i1 & 32768 \, -1 + -$i1 ^ 0xFFFF \, $i1);
#X obj 153 48 inlet;
#X obj 248 60 inlet;
#X obj 188 119 +;
#X obj 207 95 << 8;
#X text 352 105 Conversion des données brutes vers un entier signé
;
#X connect 1 0 0 0;
#X connect 2 0 4 0;
#X connect 3 0 5 0;
#X connect 4 0 1 0;
#X connect 5 0 4 1;
#X restore 476 410 pd conv;
#N canvas 248 198 687 228 conv 0;
#X obj 188 167 outlet;
#X obj 188 142 expr if ($i1 & 32768 \, -1 + -$i1 ^ 0xFFFF \, $i1);
#X obj 153 48 inlet;
#X obj 248 60 inlet;
#X obj 188 119 +;
#X obj 207 95 << 8;
#X text 352 105 Conversion des données brutes vers un entier signé
;
#X connect 1 0 0 0;
#X connect 2 0 4 0;
#X connect 3 0 5 0;
#X connect 4 0 1 0;
#X connect 5 0 4 1;
#X restore 528 410 pd conv;
#X floatatom 337 487 5 0 0 1 g - -;
#X obj 406 512 outlet;
#X obj 406 463 / 16384;
#X obj 406 442 nbx 6 14 -1e+37 1e+37 0 0 empty empty empty 0 -8 0 10
-262144 -1 -1 2196 256;
#X floatatom 406 487 5 0 0 1 g - -;
#X obj 476 512 outlet;
#X obj 476 463 / 16384;
#X obj 476 442 nbx 6 14 -1e+37 1e+37 0 0 empty empty empty 0 -8 0 10
-262144 -1 -1 15056 256;
#X floatatom 476 487 5 0 0 1 g - -;
#X obj 73 36 cnv 15 100 60 empty empty empty 20 12 0 14 -233017 -66577
0;
#X connect 1 0 27 0;
#X connect 1 1 6 0;
#X connect 2 0 36 0;
#X connect 3 0 1 0;
#X connect 5 0 4 0;
#X connect 6 0 7 0;
#X connect 8 0 10 0;
#X connect 9 0 10 0;
#X connect 10 0 5 0;
#X connect 10 0 13 0;
#X connect 11 0 0 0;
#X connect 12 0 11 1;
#X connect 15 0 21 0;
#X connect 16 0 23 0;
#X connect 19 0 12 0;
#X connect 21 0 25 0;
#X connect 22 0 21 1;
#X connect 23 0 15 0;
#X connect 23 1 22 0;
#X connect 24 0 16 0;
#X connect 25 0 1 0;
#X connect 27 0 11 0;
#X connect 27 0 35 0;
#X connect 33 0 28 0;
#X connect 34 0 41 0;
#X connect 35 0 2 0;
#X connect 35 1 2 1;
#X connect 35 2 38 0;
#X connect 35 3 38 1;
#X connect 35 4 39 0;
#X connect 35 5 39 1;
#X connect 35 6 40 0;
#X connect 35 7 40 1;
#X connect 36 0 34 0;
#X connect 37 0 33 0;
#X connect 38 0 44 0;
#X connect 39 0 48 0;
#X connect 40 0 37 0;
#X connect 41 0 14 0;
#X connect 43 0 45 0;
#X connect 44 0 43 0;
#X connect 45 0 42 0;
#X connect 47 0 49 0;
#X connect 48 0 47 0;
#X connect 49 0 46 0;
#X coords 0 -1 1 1 120 100 2 100 100;
#X restore 128 -60 pd apidou;
#X obj 516 252 tgl 15 0 empty empty empty 17 7 0 10 -262144 -1 -1 0
1;
#N canvas 65 382 450 300 vibreur 0;
#X obj 132 198 s com;
#X msg 132 175 print \$1;
#X obj 132 59 inlet;
#X obj 132 133 tgl 15 0 empty empty empty 17 7 0 10 -262144 -1 -1 0
1;
#X obj 102 107 cnv 15 90 15 empty empty Vibreur 20 12 0 14 -262144
-66577 0;
#X connect 1 0 0 0;
#X connect 2 0 3 0;
#X connect 3 0 1 0;
#X coords 0 -1 1 1 100 60 2 100 100;
#X restore 168 276 pd vibreur;
#X obj 168 243 tgl 15 0 empty empty empty 17 7 0 10 -262144 -1 -1 0
1;
#X connect 4 0 3 0;
#X connect 5 0 7 0;
#X connect 6 0 0 0;
#X connect 6 1 1 0;
#X connect 6 2 2 0;
#X connect 6 3 4 0;
#X connect 6 3 5 0;
#X connect 9 0 8 0;
