#N canvas 0 0 1920 998 10;
#X declare -path lib;
#X obj 663 213 apidou;
#X obj 791 428 tgl 15 0 empty empty Pied_G -40 7 0 10 -262144 -1 -1
0 1;
#X obj 810 452 tgl 15 0 empty empty Pied_D -40 7 0 10 -262144 -1 -1
0 2;
#X obj 830 474 tgl 15 0 empty empty Papillon_G -65 7 0 10 -262144 -1
-1 0 4;
#X obj 849 495 tgl 15 0 empty empty Papillon_D -65 7 0 10 -262144 -1
-1 0 8;
#X obj 869 518 tgl 15 0 empty empty Oreille_G -60 7 0 10 -262144 -1
-1 0 16;
#X obj 888 541 tgl 15 0 empty empty Oreille_D -60 7 0 10 -262144 -1
-1 0 32;
#X obj 908 564 tgl 15 0 empty empty pompom -40 7 0 10 -262144 -1 -1
0 64;
#X obj 791 389 unpack 0 0 0 0 0 0 0;
#X obj 1356 395 declare -path lib;
#X obj 1082 725 audio-sampler;
#X obj 830 856 output~;
#X obj 1079 613 adc~;
#X msg 1174 619 play;
#X obj 810 759 synth-xylo;
#X msg 810 708 64;
#X obj 783 682 sel 0;
#X obj 832 678 sel 0;
#X msg 859 704 66;
#X obj 917 762 synth-xylo;
#X msg 1249 632 rec;
#X msg 1289 633 stop;
#X obj 1076 833 *~ 3;
#X obj 804 808 *~ 0.3;
#X obj 894 671 sel 0;
#X obj 934 669 sel 0;
#X msg 921 697 72;
#X msg 961 695 74;
#X obj 912 812 *~ 0.3;
#X obj 1145 569 sel 0;
#X msg 1341 637 loop 0;
#X connect 0 2 8 0;
#X connect 1 0 16 0;
#X connect 2 0 17 0;
#X connect 5 0 24 0;
#X connect 6 0 25 0;
#X connect 7 0 29 0;
#X connect 8 0 1 0;
#X connect 8 1 2 0;
#X connect 8 2 3 0;
#X connect 8 3 4 0;
#X connect 8 4 5 0;
#X connect 8 5 6 0;
#X connect 8 6 7 0;
#X connect 10 0 22 0;
#X connect 12 0 10 0;
#X connect 12 1 10 0;
#X connect 13 0 10 1;
#X connect 14 0 23 0;
#X connect 15 0 14 0;
#X connect 16 1 15 0;
#X connect 17 1 18 0;
#X connect 18 0 19 0;
#X connect 19 0 28 0;
#X connect 20 0 10 1;
#X connect 21 0 10 1;
#X connect 22 0 11 1;
#X connect 22 0 11 0;
#X connect 23 0 11 0;
#X connect 24 1 26 0;
#X connect 25 1 27 0;
#X connect 26 0 14 0;
#X connect 27 0 19 0;
#X connect 28 0 11 1;
#X connect 29 1 13 0;
#X connect 30 0 10 1;
