#N canvas 0 25 1366 694 10;
#X floatatom 247 504 5 0 0 0 - - -, f 5;
#X obj 250 528 hsl 50 15 -32768 32768 0 0 empty empty empty -2 -8 0
10 -262144 -1 -1 2565 1;
#X floatatom 342 499 5 0 0 0 - - -, f 5;
#X obj 343 525 hsl 50 15 -32768 32768 0 0 empty empty empty -2 -8 0
10 -262144 -1 -1 3626 1;
#X floatatom 421 505 5 0 0 0 - - -, f 5;
#X obj 421 530 hsl 50 15 -32768 32768 0 0 empty empty empty -2 -8 0
10 -262144 -1 -1 2089 1;
#X obj 246 454 unpack f f f;
#X obj 246 312 s2l;
#X obj 246 290 symbol;
#X obj 246 345 route 1;
#X obj 1296 513 prepend set;
#X msg 1295 535 0;
#X obj 1032 484 route 3;
#X obj 1032 560 tgl 15 0 empty empty empty 17 7 0 10 -262144 -1 -1
0 1;
#X obj 1059 560 tgl 15 0 empty empty empty 17 7 0 10 -262144 -1 -1
0 2;
#X obj 1085 561 tgl 15 0 empty empty empty 17 7 0 10 -262144 -1 -1
0 4;
#X obj 1113 561 tgl 15 0 empty empty empty 17 7 0 10 -262144 -1 -1
0 8;
#X obj 1149 562 tgl 15 0 empty empty empty 17 7 0 10 -262144 -1 -1
0 16;
#X obj 1182 564 tgl 15 0 empty empty empty 17 7 0 10 -262144 -1 -1
0 32;
#X obj 1032 530 & 1;
#X obj 1059 530 & 2;
#X obj 1085 531 & 4;
#X obj 246 727 outlet;
#X obj 626 779 outlet;
#X obj 1031 804 outlet;
#X obj 1385 513 outlet;
#X obj 1031 749 pack 0 0 0 0 0 0 0 0 0;
#X obj 1058 609 t b f;
#X obj 1085 639 t b f;
#X obj 246 611 / 16384;
#X obj 345 594 / 16384;
#X obj 421 563 / 16384;
#X obj 1113 610 t b f;
#X obj 1149 640 t b f;
#X obj 1182 665 t b f;
#X obj 246 698 pack 0 0 0;
#X obj 424 640 t b f;
#X obj 345 641 t b f;
#X obj 619 467 route 2;
#X obj 1230 566 tgl 15 0 empty empty empty 17 7 0 10 -262144 -1 -1
0 64;
#X obj 1230 534 & 64;
#X obj 1230 667 t b f;
#X obj 1113 531 & 8;
#X obj 1149 532 & 16;
#X obj 1182 532 & 32;
#X floatatom 620 545 5 0 0 0 - - -, f 5;
#X obj 623 569 hsl 50 15 -32768 32768 0 0 empty empty empty -2 -8 0
10 -262144 -1 -1 2450 1;
#X floatatom 723 537 5 0 0 0 - - -, f 5;
#X obj 726 560 hsl 50 15 -32768 32768 0 0 empty empty empty -2 -8 0
10 -262144 -1 -1 2450 1;
#X floatatom 791 535 5 0 0 0 - - -, f 5;
#X obj 794 560 hsl 50 15 -32768 32768 0 0 empty empty empty -2 -8 0
10 -262144 -1 -1 2450 1;
#X obj 619 495 unpack f f f;
#X obj 625 755 pack 0 0 0;
#X obj 796 706 t b f;
#X obj 729 680 t b f;
#N canvas 653 274 450 300 act 0;
#X obj 96 37 inlet;
#X obj 135 214 s \$0-actI;
#X msg 118 160 label Connecté;
#X msg 218 151 label Déconnecté;
#X obj 96 87 sel 1;
#X obj 96 58 tgl 15 0 empty empty empty 17 7 0 10 -262144 -1 -1 3 3
;
#X obj 314 106 loadbang;
#X obj 316 76 bng 15 250 50 0 empty empty empty 17 7 0 10 -262144 -1
-1;
#X obj 46 88 outlet;
#X connect 0 0 5 0;
#X connect 2 0 1 0;
#X connect 3 0 1 0;
#X connect 4 0 2 0;
#X connect 4 1 3 0;
#X connect 5 0 4 0;
#X connect 5 0 8 0;
#X connect 6 0 3 0;
#X restore 666 243 pd act;
#X obj 100 100 cnv 15 200 100 empty empty empty 20 12 0 14 -233017
-66577 0;
#X obj 101 159 cnv 10 10 40 empty empty acceleration 4 5 0 10 -260097
-66577 0;
#X obj 162 169 cnv 10 10 30 empty empty gyroscope 4 5 0 10 -260097
-66577 0;
#X obj 226 179 cnv 10 10 20 empty empty touch 4 5 0 10 -260097 -66577
0;
#X obj 270 132 image apidou.gif 0;
#X obj 101 104 cnv 15 140 20 \$0-actO \$0-actI Déconnecté 7 10 0
20 -191407 -1 0;
#X obj 623 622 expr ($f1/32768)*1000;
#X obj 728 657 expr ($f1/32768)*1000;
#X obj 1163 356 netsend 3000;
#X obj 703 403 netsend;
#X obj 352 336 prepend set;
#X msg 351 361 3 0;
#X floatatom 526 215 5 0 0 0 - - -, f 5;
#X msg 609 333 connect localhost 3001;
#X obj 703 429 print r_netsend;
#X msg 526 336 disconnect;
#X obj 609 311 bng 15 250 50 0 empty empty empty 17 7 0 10 -262144
-1 -1;
#X obj 773 299 bng 15 250 50 0 empty empty empty 17 7 0 10 -262144
-1 -1;
#X obj 609 266 bng 15 250 50 0 empty empty empty 17 7 0 10 -262144
-1 -1;
#X obj 608 290 delay 1000;
#X obj 773 276 delay 1500;
#X obj 608 241 change;
#X obj 526 293 ==;
#X obj 526 314 bng 15 250 50 0 empty empty empty 17 7 0 10 -262144
-1 -1;
#X obj 245 236 netreceive 3000 0;
#X msg 774 346 send \$1;
#X msg 773 318 0;
#X obj 538 57 inlet;
#X obj 105 128 tgl 10 0 \$0-vibO \$0-vibI vibre 12 5 0 10 -262144 -1
-1 0 1;
#X obj 835 313 r \$0-vibO;
#X obj 105 142 tgl 10 0 \$0-loopO \$0-loopI loop 12 5 0 10 -262144
-1 -1 0 1;
#X obj 1230 600 / 64;
#X obj 1182 602 / 32;
#X obj 1150 593 / 16;
#X obj 1113 588 / 8;
#X obj 1085 586 / 4;
#X obj 1059 582 / 2;
#N canvas 433 184 450 300 vibreur 0;
#X obj 315 62 inlet;
#X obj 319 363 s \$0-vibI;
#X obj 319 143 tgl 15 0 empty empty empty 17 7 0 10 -262144 -1 -1 0
1;
#X obj 361 204 tgl 15 0 empty empty empty 17 7 0 10 -262144 -1 -1 0
1;
#X obj 338 86 bng 15 250 50 0 empty empty empty 17 7 0 10 -262144 -1
-1;
#X obj 316 87 tgl 15 0 empty empty empty 17 7 0 10 -262144 -1 -1 0
1;
#X obj 319 118 route bang loop time;
#X msg 436 85 time 500 600;
#X obj 491 166 tgl 15 0 empty empty empty 17 7 0 10 -262144 -1 -1 0
1;
#X msg 267 294 0;
#X msg 345 290 1;
#X obj 266 269 bng 15 250 50 0 empty empty empty 17 7 0 10 -262144
-1 -1;
#X obj 265 239 delay 1000;
#X obj 264 201 select 1 0;
#X obj 357 263 bng 16 250 50 0 empty empty empty 17 7 0 10 -262144
-1 -1;
#X obj 344 237 delay 1000;
#X obj 409 198 unpack 0 0;
#X obj 336 320 spigot;
#X msg 374 85 loop;
#X obj 353 140 s \$0-loopI;
#X obj 355 157 r \$0-loopO;
#X connect 0 0 6 0;
#X connect 2 0 13 0;
#X connect 2 0 1 0;
#X connect 3 0 17 1;
#X connect 4 0 6 0;
#X connect 5 0 6 0;
#X connect 6 0 2 0;
#X connect 6 1 19 0;
#X connect 6 2 16 0;
#X connect 6 3 8 0;
#X connect 7 0 6 0;
#X connect 8 0 1 0;
#X connect 9 0 2 0;
#X connect 10 0 17 0;
#X connect 11 0 9 0;
#X connect 12 0 11 0;
#X connect 13 0 12 0;
#X connect 13 1 15 0;
#X connect 14 0 10 0;
#X connect 15 0 14 0;
#X connect 16 0 12 1;
#X connect 16 1 15 1;
#X connect 17 0 2 0;
#X connect 18 0 6 0;
#X connect 20 0 3 0;
#X restore 538 79 pd vibreur;
#X obj 252 639 s \$0-accX;
#X obj 348 617 s \$0-accY;
#X obj 421 618 s \$0-accZ;
#X obj 626 651 s \$0-gyroX;
#X obj 770 682 s \$0-gyroY;
#X obj 837 705 s \$0-gyroZ;
#X obj 796 682 expr ($f1/32768)*250;
#N canvas 441 192 745 391 preset 0;
#X obj 42 104 r \$0-accX;
#X obj 103 104 r \$0-accY;
#X obj 163 103 r \$0-accZ;
#X obj 261 102 r \$0-gyroX;
#X obj 322 102 r \$0-gyroY;
#X obj 382 101 r \$0-gyroZ;
#X obj 516 105 r \$0-touch;
#X obj 518 148 tgl 15 0 empty empty Pied_G -40 7 0 10 -262144 -1 -1
0 1;
#X obj 537 172 tgl 15 0 empty empty Pied_D -40 7 0 10 -262144 -1 -1
0 1;
#X obj 557 194 tgl 15 0 empty empty Papillon_G -65 7 0 10 -262144 -1
-1 0 1;
#X obj 576 215 tgl 15 0 empty empty Papillon_D -65 7 0 10 -262144 -1
-1 0 1;
#X obj 596 238 tgl 15 0 empty empty Oreille_G -60 7 0 10 -262144 -1
-1 0 1;
#X obj 615 261 tgl 15 0 empty empty Oreille_D -60 7 0 10 -262144 -1
-1 0 1;
#X obj 635 284 tgl 15 0 empty empty pompom -40 7 0 10 -262144 -1 -1
0 1;
#X obj 518 125 unpack 0 0 0 0 0 0 0;
#X floatatom 47 194 5 0 0 0 - - -, f 5;
#X floatatom 170 196 5 0 0 0 - - -, f 5;
#X obj 266 257 moses, f 11;
#X floatatom 235 313 5 0 0 0 - - -, f 5;
#X floatatom 135 315 5 0 0 0 - - -, f 5;
#X obj 133 336 bng 15 250 50 0 empty empty empty 17 7 0 10 -262144
-1 -1;
#X msg 135 357 debout;
#X obj 279 348 bng 15 250 50 0 empty empty empty 17 7 0 10 -262144
-1 -1;
#X msg 260 377 ventre;
#X obj 106 431 prepend set;
#X msg 101 464 debout;
#X obj 370 346 bng 15 250 50 0 empty empty empty 17 7 0 10 -262144
-1 -1;
#X msg 351 375 dos;
#X obj 310 460 outlet;
#X obj 266 424 s \$0-position;
#X floatatom 106 189 5 0 0 0 - - -, f 5;
#X msg 35 305 cote_gauche;
#X obj 291 301 split 0.8 1;
#X obj 386 302 split -1 -0.8;
#X obj 35 283 split -1 -0.8;
#X obj 34 332 split 0.8 1;
#X msg 36 361 cote_droit;
#X obj 135 288 split 0.8 1;
#X floatatom 208 316 5 0 0 0 - - -, f 5;
#X obj 206 337 bng 15 250 50 0 empty empty empty 17 7 0 10 -262144
-1 -1;
#X obj 208 289 split -0.8 -1;
#X msg 208 358 envers;
#X obj 368 453 s \$0-lblpos;
#X obj 365 424 prepend label;
#X connect 0 0 15 0;
#X connect 1 0 30 0;
#X connect 2 0 16 0;
#X connect 6 0 14 0;
#X connect 14 0 7 0;
#X connect 14 1 8 0;
#X connect 14 2 9 0;
#X connect 14 3 10 0;
#X connect 14 4 11 0;
#X connect 14 5 12 0;
#X connect 14 6 13 0;
#X connect 15 0 34 0;
#X connect 15 0 35 0;
#X connect 16 0 32 0;
#X connect 16 0 33 0;
#X connect 19 0 20 0;
#X connect 20 0 21 0;
#X connect 21 0 24 0;
#X connect 21 0 29 0;
#X connect 21 0 43 0;
#X connect 22 0 23 0;
#X connect 23 0 24 0;
#X connect 23 0 29 0;
#X connect 23 0 43 0;
#X connect 24 0 25 0;
#X connect 26 0 27 0;
#X connect 27 0 24 0;
#X connect 27 0 29 0;
#X connect 27 0 43 0;
#X connect 30 0 37 0;
#X connect 30 0 40 0;
#X connect 31 0 24 0;
#X connect 31 0 43 0;
#X connect 32 0 22 0;
#X connect 33 0 26 0;
#X connect 34 0 31 0;
#X connect 35 0 36 0;
#X connect 36 0 24 0;
#X connect 36 0 29 0;
#X connect 36 0 43 0;
#X connect 37 0 19 0;
#X connect 37 1 18 0;
#X connect 38 0 39 0;
#X connect 39 0 41 0;
#X connect 40 0 38 0;
#X connect 41 0 24 0;
#X connect 41 0 29 0;
#X connect 41 0 43 0;
#X connect 43 0 42 0;
#X restore 1087 311 pd preset;
#X obj 1043 778 s \$0-touch;
#X obj 144 139 cnv 15 80 20 empty \$0-lblpos debout 6 8 0 14 -233017
-66577 0;
#N canvas 611 138 546 580 DEPLACEMENT 0;
#X obj 309 120 bng 21 250 50 0 \$0-dep2 \$0-deplacement empty 17 7
0 10 -260818 -1 -262144;
#X restore 64 897 pd DEPLACEMENT;
#X obj 58 867 s \$0-deplacement;
#X obj 66 810 pack 0 0;
#X floatatom 74 753 5 0 0 0 - - -, f 5;
#X floatatom 121 766 5 0 0 0 - - -, f 5;
#X msg 64 838 pos \$1 \$2;
#X obj 83 789 t b a;
#X obj 90 665 * 100;
#X obj 135 687 * 100;
#X obj 133 722 + 300, f 6;
#X obj 659 53 r \$0-dep2;
#X obj 544 134 s pd-DEPLACEMENT;
#X msg 543 109 vis 1;
#X obj 267 123 bng 8 250 50 0 empty empty empty 17 7 0 10 -260097 -1
-1;
#X obj 86 702 + 150;
#X msg 205 839 size \$1;
#X floatatom 229 807 5 0 0 0 - - -, f 5;
#X msg 171 755 color \$1;
#X obj 180 700 * 5;
#X obj 178 722 + 10;
#X obj 230 755 * 20;
#X obj 228 786 + 20;
#X connect 0 0 1 0;
#X connect 0 0 29 0;
#X connect 2 0 3 0;
#X connect 3 0 30 0;
#X connect 4 0 5 0;
#X connect 5 0 31 0;
#X connect 6 0 0 0;
#X connect 6 1 2 0;
#X connect 6 2 4 0;
#X connect 7 0 9 0;
#X connect 7 0 66 0;
#X connect 8 0 7 0;
#X connect 9 0 6 0;
#X connect 9 1 38 0;
#X connect 10 0 11 0;
#X connect 12 0 10 0;
#X connect 12 0 19 0;
#X connect 12 0 20 0;
#X connect 12 0 21 0;
#X connect 12 0 42 0;
#X connect 12 0 43 0;
#X connect 12 0 44 0;
#X connect 12 0 40 0;
#X connect 13 0 26 0;
#X connect 14 0 92 0;
#X connect 15 0 91 0;
#X connect 16 0 90 0;
#X connect 17 0 89 0;
#X connect 18 0 88 0;
#X connect 19 0 13 0;
#X connect 20 0 14 0;
#X connect 21 0 15 0;
#X connect 26 0 24 0;
#X connect 26 0 102 0;
#X connect 27 0 26 0;
#X connect 27 1 26 1;
#X connect 28 0 26 0;
#X connect 28 1 26 2;
#X connect 29 0 35 0;
#X connect 29 0 94 0;
#X connect 29 0 112 0;
#X connect 29 0 124 0;
#X connect 30 0 37 0;
#X connect 30 0 95 0;
#X connect 30 0 122 0;
#X connect 31 0 36 0;
#X connect 31 0 96 0;
#X connect 31 0 111 0;
#X connect 32 0 26 0;
#X connect 32 1 26 3;
#X connect 33 0 26 0;
#X connect 33 1 26 4;
#X connect 34 0 26 0;
#X connect 34 1 26 5;
#X connect 35 0 22 0;
#X connect 36 0 35 0;
#X connect 36 1 35 2;
#X connect 37 0 35 0;
#X connect 37 1 35 1;
#X connect 38 0 51 0;
#X connect 38 1 12 0;
#X connect 39 0 87 0;
#X connect 40 0 39 0;
#X connect 41 0 26 0;
#X connect 41 1 26 6;
#X connect 42 0 16 0;
#X connect 43 0 17 0;
#X connect 44 0 18 0;
#X connect 45 0 46 0;
#X connect 46 0 62 0;
#X connect 47 0 48 0;
#X connect 48 0 63 0;
#X connect 49 0 50 0;
#X connect 50 0 100 0;
#X connect 51 0 45 0;
#X connect 51 1 47 0;
#X connect 51 2 49 0;
#X connect 52 0 23 0;
#X connect 53 0 52 0;
#X connect 53 1 52 2;
#X connect 54 0 52 0;
#X connect 54 1 52 1;
#X connect 55 0 25 0;
#X connect 62 0 52 0;
#X connect 62 0 97 0;
#X connect 63 0 54 0;
#X connect 63 0 98 0;
#X connect 65 0 70 0;
#X connect 66 0 67 0;
#X connect 68 0 77 0;
#X connect 68 0 78 1;
#X connect 68 0 78 0;
#X connect 68 0 55 0;
#X connect 69 0 65 0;
#X connect 71 0 65 0;
#X connect 72 0 69 0;
#X connect 73 0 82 0;
#X connect 74 0 75 0;
#X connect 74 0 76 0;
#X connect 75 0 72 0;
#X connect 76 0 73 0;
#X connect 77 0 74 0;
#X connect 78 0 79 0;
#X connect 79 0 71 0;
#X connect 80 0 8 0;
#X connect 80 1 68 0;
#X connect 81 0 65 0;
#X connect 82 0 81 0;
#X connect 83 0 93 0;
#X connect 85 0 81 0;
#X connect 87 0 41 0;
#X connect 88 0 34 0;
#X connect 89 0 33 0;
#X connect 90 0 32 0;
#X connect 91 0 28 0;
#X connect 92 0 27 0;
#X connect 100 0 53 0;
#X connect 100 0 99 0;
#X connect 106 0 109 0;
#X connect 107 0 106 0;
#X connect 108 0 110 0;
#X connect 109 0 105 0;
#X connect 110 0 106 0;
#X connect 110 1 106 1;
#X connect 111 0 118 0;
#X connect 112 0 113 0;
#X connect 113 0 107 0;
#X connect 114 0 93 0;
#X connect 116 0 115 0;
#X connect 117 0 116 0;
#X connect 118 0 108 0;
#X connect 119 0 105 0;
#X connect 120 0 119 0;
#X connect 121 0 105 0;
#X connect 122 0 123 0;
#X connect 123 0 121 0;
#X connect 124 0 125 0;
#X connect 125 0 120 0;
#X coords 0 -1 1 1 200 100 1 100 100;
